<svg width="20" height="20" fill="none" stroke="white" stroke-width="1.5"  stroke-linecap="round" stroke-linejoin="round" viewBox="0 0 24 24" xmlns="http://www.w3.org/2000/svg">
  <path d="M20.668 10.203a6.032 6.032 0 0 0-.115-2.355 5.972 5.972 0 0 0-1.577-2.777 5.972 5.972 0 0 0-2.778-1.577 6.031 6.031 0 0 0-2.354-.115"></path>
  <path d="M17.165 9.832a2.765 2.765 0 0 0-.781-2.369 2.765 2.765 0 0 0-2.369-.78"></path>
  <path d="M8.02 4.751c.335 0 .644.182.807.475L9.956 7.26a.923.923 0 0 1 .018.86l-1.088 2.176s.316 1.621 1.635 2.94c1.32 1.32 2.934 1.63 2.934 1.63l2.176-1.088a.923.923 0 0 1 .861.019l2.04 1.134a.923.923 0 0 1 .474.806v2.342c0 1.192-1.107 2.054-2.237 1.672-2.32-.783-5.923-2.273-8.206-4.557C6.28 12.911 4.789 9.31 4.006 6.988c-.381-1.13.48-2.237 1.672-2.237H8.02Z"></path>
</svg>